<svg xmlns="http://www.w3.org/2000/svg" viewBox="-103.7 -57.19 1076.45 3025.68" role="img" aria-label="marche-turban"><g><g transform="translate(-276 479)"><path d="M1013.24 2409.58C1020.27 2376.82 988.086 2365.75 967.795 2358.46C953.261 2349.03 899.409 2316.38 857.74 2276.08C823.643 2243.1 800.432 2200.83 790.77 2196.8C790.77 2196.8 780.824 2191.03 779.791 2186.75C773.739 2161.64 778.787 2138.23 779.791 2123C799.189 2117.91 814.733 2111.56 826.358 2102.67C829.748 2103.8 834.83 2105.25 836.345 2100.29C846.851 2030.2 851.386 1960.93 859.934 1890.78C892.29 1623.6 895.94 1311.46 840.275 1067.43C839.69 1055.34 840.745 1044.41 841.824 1034.02C849.351 1033.21 853.902 1025.92 860.048 1021.57C869.587 1013.98 880.882 1008.16 880.416 994.908C882.682 993.192 882.418 992.227 881.301 990.041C888.577 958.751 856.122 925.779 846.943 899.983C863.628 736.789 840.926 582.574 853.591 419.341C869.588 412.647 858.833 370.809 857.74 353.552C848.878 242.378 791.087 132.46 687.017 96.1412C681.068 94.9352 672.126 88.1352 667.203 92.7012C657.689 88.9322 645.031 96.3632 637.668 87.8082L637.742 87.7522C631.542 79.1552 628.763 68.2262 626.725 57.8922C627.066 60.8042 627.635 63.6922 628.336 66.5152C610.395 15.9512 605.875 2.43122 548.118 0.0502247C522.101 -0.297775 487.805 0.483225 472.635 25.2972C466.419 36.8322 468.318 50.0772 464.46 62.2192C457.378 84.5002 426.808 73.7332 410.759 85.3032C282.311 126.501 176.952 210.593 142.321 345.566C135.241 361.834 127.211 378.025 121.292 394.814C120.376 397.306 117.856 405.739 123.908 409.62L126.835 411.497C88.2814 591.698 85.7234 743.542 215.25 863.675C224.97 915.296 199.965 985.791 209.577 1035.91C204.1 1043.68 211.045 1049.94 218.047 1050.44C218.722 1050.82 221.45 1052.01 222.194 1052.35C211.051 1209.66 257.835 1421.67 278.457 1505.34C281.264 1555.58 264.117 1596.85 228.843 1624.23C189.87 1648.24 112.82 1756.65 127.104 1870.37C110.411 1873.65 93.8394 1875.44 77.8244 1881.72C7.75041 1869.35 8.44541 2004.44 3.98041 2051.94C-3.58159 2131.47 -8.28159 2246.74 67.2714 2297.65C87.1754 2312.09 127.533 2328.99 148.214 2305.88C154.991 2297.74 156.688 2289.87 154.022 2281.56C188.172 2233.31 178.969 2170.2 182.106 2113.61C192.009 2113.01 202.37 2117.66 211.949 2115.97C221.781 2107.3 185.913 2109.66 182.193 2109.15C182.574 2100.43 183.276 2091.24 184.182 2082.44C189.808 2083.57 197.015 2086.27 202.425 2086.47C205.627 2087.25 207.89 2082.84 205.957 2080.56C201.735 2076.53 190.97 2077.16 184.912 2076.58C185.935 2069.22 187.186 2061.48 188.576 2054.35C195.987 2054.09 203.64 2058.81 210.657 2057.84C205.346 2054.3 195.377 2055.38 188.903 2053.04C193.113 2030.1 201.691 2008.32 209.666 1986.86C229.234 1994.93 246.115 1995.25 265.218 1992.83C273.032 1994.03 276.842 1992.43 278.107 1982.66L277.608 1982.04C292.749 1891.44 341.607 1805.07 432.36 1707.12C450.286 1687.06 470.543 1663.43 484.04 1637.02C511.161 1582.06 515.793 1521.41 536.69 1464.33C556.2 1406.96 582.877 1352.08 607.924 1297.7C611.597 1325.57 616.531 1354.16 621.66 1381.5C644.234 1478.35 642.046 1581.68 625.433 1679.07C600.853 1815.48 612.701 1952.53 607.234 2089.9C607.309 2097.82 608.291 2105.02 607.129 2113.26C606.975 2113.9 607.275 2114.65 608.027 2114.63L609.446 2114.67C621.26 2123.32 637.576 2124.88 651.458 2129.58C657.288 2134.19 655.646 2141.5 656.18 2147.2C657.705 2171.77 659.655 2196.44 657.235 2221.76C646.523 2242.29 633.22 2238.05 630.499 2266.98C628.117 2300.01 623.903 2335.14 639.989 2364.55L633.903 2365.6C624.871 2384.56 630.385 2396.86 651.613 2404.88C756.411 2445.97 903.877 2483.27 1013.24 2452.26C1015.22 2454.23 1018.11 2452.18 1020.37 2449.09C1022.55 2446.11 1024.14 2442.16 1023.78 2439.87C1021.91 2429.81 1024.48 2411.44 1013.24 2409.58Z" transform="translate(199 -36)" fill="var(--peau, #B9814F)" stroke="none"></path><path d="M1024.76 2380.04C1033.14 2382.58 1033.24 2391.82 1033.5 2398.98C1033.64 2400.9 1033.94 2402.81 1034.23 2404.72C1035 2409.67 1035.77 2414.59 1033.79 2419.62C1031.72 2425.35 1024.57 2432.46 1018.16 2428.83C928.649 2465.78 743.558 2412.05 656.448 2379.41C644.528 2374.58 632.198 2370.16 630.638 2356.18C629.718 2351.22 632.048 2332.48 638.188 2331.08C626.02 2305.81 628.192 2276.25 630.268 2247.98C630.533 2244.38 630.797 2240.79 631.028 2237.24C634.749 2207.17 644.388 2210.33 657.768 2190.55C659.79 2169.62 658.714 2153.14 657.446 2133.7C657.214 2130.16 656.976 2126.51 656.749 2122.72C656.55 2121.42 656.555 2119.87 656.561 2118.26C656.574 2114.47 656.589 2110.34 653.928 2108.31C640.249 2104.97 625.298 2102.2 613.399 2094.39C610.159 2094.3 607.079 2091.61 607.688 2087.32C608.444 2082 608.21 2076.9 607.973 2071.71C607.864 2069.34 607.755 2066.95 607.739 2064.52C609.062 2043.33 609.639 2021.15 609.826 1999.89L609.336 1999.89C609.538 1975.2 609.208 1950.5 608.879 1925.8C608.03 1862.27 607.181 1798.73 615.378 1735.41C617.98 1707.95 621.737 1680.55 625.494 1653.15C633.115 1597.56 640.739 1541.96 638.729 1485.81C636.758 1419.55 619.558 1355.28 610.348 1289.94C587.378 1339.55 563.948 1389.09 546.418 1440.75C525.608 1497.64 520.729 1559.25 493.528 1614.01C480.138 1640.21 460.808 1663.15 441.098 1685.21C369.539 1762.32 305.718 1851.82 287.928 1955.42C288.098 1955.63 288.249 1955.86 288.399 1956.1C287.388 1962.82 285.608 1971.05 277.909 1973.09C270.989 1972.16 263.508 1972.57 256.659 1974.01C243.448 1975.09 230.039 1972.25 217.659 1967.95C210.819 1986.36 203.718 2004.77 199.789 2024.02C206.258 2025.51 214.619 2024.55 219.508 2029.34C222.138 2032.29 220.888 2035.93 217.289 2037.35C213.232 2038.61 208.984 2037.38 204.76 2036.16C202.372 2035.47 199.992 2034.78 197.659 2034.55C196.909 2038.57 196.249 2042.6 195.659 2046.65C204.098 2047.11 217.649 2047.93 216.638 2058.66C214.426 2069.04 204.777 2066.43 196.747 2064.25C195.668 2063.96 194.618 2063.67 193.619 2063.43C193.119 2068.65 192.729 2073.87 192.458 2079.09C194.613 2079.16 196.881 2079.12 199.193 2079.07C206.408 2078.92 214.056 2078.77 220.069 2082.18C225.569 2085.5 224.739 2093.84 218.239 2095.56C212.921 2096.88 207.246 2095.85 201.632 2094.84C198.335 2094.24 195.059 2093.65 191.888 2093.54C191.395 2104.52 191.314 2115.78 191.233 2127.15C190.911 2172.21 190.576 2218.99 164.438 2257.27C166.979 2267.15 163.458 2276.19 156.999 2283.92C134.168 2309.18 92.8083 2293.16 69.3783 2276.48C-0.311673 2226.82 -3.32167 2135.91 1.49933 2060.07C2.50915 2051.66 3.19915 2039.98 4.00155 2026.4C8.09387 1957.14 15.11 1838.41 82.3883 1851.3C96.9793 1845.79 111.048 1843.97 126.079 1841.17C124.178 1832.87 123.048 1824.27 124.198 1815.82C132.308 1733.36 161.518 1646.83 230.858 1594.99C267.329 1566.64 280.878 1525.77 278.499 1480.84C246.329 1350.12 213.138 1165.75 221.989 1030.25C200.294 1020.56 207.516 964.149 212.951 921.702C215.104 904.885 216.977 890.259 216.659 881.599C216.684 877.91 216.855 874.179 217.027 870.434C217.478 860.574 217.935 850.616 215.739 841.079C82.2683 719.519 90.8883 550.659 126.218 388.589C118.968 383.939 118.968 375.029 121.608 367.849C127.508 351.269 135.289 335.109 142.499 319.029C174.798 198.269 267.338 102.529 389.028 66.5786C391.536 65.8915 395.914 63.7947 401.059 61.3309C414.707 54.7946 433.749 45.6751 437.569 53.4386C446.338 51.4586 455.149 49.6486 463.999 47.9586C468.768 39.1986 471.579 29.4986 472.569 19.5986C473.017 17.2837 472.958 14.7521 472.899 12.2151C472.803 8.12151 472.708 4.01366 474.739 0.778639C474.548 0.208639 475.039 -0.421361 475.348 0.378639C484.369 -1.24136 483.058 6.81864 481.508 12.8486C484.518 30.0286 480.508 48.1686 471.698 63.0986C462.489 83.9486 438.268 79.2286 457.399 57.9686C431.369 61.7486 418.768 74.5086 433.369 98.0586C453.848 166.229 714.319 171.419 671.239 72.5386C669.069 71.3886 649.208 65.9586 644.848 62.3386C648.528 70.5386 650.649 84.5286 660.168 87.2486C663.268 87.6086 665.409 92.0786 661.948 93.7986C644.456 101.169 638.27 77.011 634.468 62.1622C633.906 59.9669 633.396 57.975 632.909 56.3186C627.428 41.7786 623.458 25.5086 629.188 11.1086C632.232 9.37504 634.877 22.7421 637.391 35.4552C639.214 44.6688 640.969 53.539 642.758 56.0686C643.188 56.1586 643.588 56.2286 643.928 56.2186C644.058 56.9886 644.608 57.6786 645.468 58.3086C650.088 61.6886 663.579 63.1786 667.768 65.1286C671.718 58.5186 681.108 60.9786 686.878 63.8186C695.418 67.0686 705.178 69.0686 712.168 74.9686C811.778 116.709 858.628 227.509 867.729 327.859C867.973 330.428 868.452 333.861 869.007 337.835C871.75 357.492 876.339 390.366 863.378 397.229C857.653 473.13 859.56 547.757 861.464 622.226C863.599 705.778 865.73 789.133 857.069 873.869C864.558 889.769 873.039 905.059 882.018 920.209C890.208 933.509 894.229 948.789 891.499 964.179C892.668 966.839 892.418 969.909 890.289 971.939C889.319 986.929 878.598 991.739 868.058 1000.33C862.388 1004.2 858.308 1010.89 851.458 1012.72C850.489 1022.27 849.808 1031.9 850.258 1041.52C907.698 1295.43 900.938 1609.13 869.909 1866.14C864.487 1910.6 860.627 1955.31 855.838 1999.89L854.919 1999.89C852.396 2024.33 850.387 2051.94 846.789 2075.87C845.588 2082.66 838.579 2084.62 832.798 2082.92C820.218 2091.94 805.208 2097.44 790.079 2101.63C788.619 2126.05 788.239 2138.16 793.229 2161.98C796.619 2160.83 801.698 2160.53 802.428 2164.42C822.808 2173.24 827.008 2197.84 840.048 2213.87C841.722 2213.56 843.527 2213.15 845.409 2212.72C855.09 2210.5 866.776 2207.83 872.729 2215.7C875.889 2225.94 862.614 2226.49 854.11 2226.84C852.632 2226.9 851.297 2226.96 850.218 2227.06C854.608 2232.57 859.079 2238.01 863.708 2243.35C865.818 2242.84 868.201 2242.08 870.72 2241.27C879.714 2238.38 890.427 2234.93 896.489 2241.07C898.168 2242.9 898.789 2245.37 897.399 2247.75C892.938 2255.35 883.198 2254.81 875.539 2256.29C881.688 2262.39 888.198 2268.15 894.918 2273.67C906.749 2269.22 918.058 2262.82 930.649 2261.16C937.758 2260.17 940.918 2270.86 934.358 2274.07C925.668 2278.33 915.888 2280.54 906.108 2282.38C927.168 2299.28 953.159 2309.08 976.079 2323.1C1002.96 2331.64 1028.56 2349.2 1024.76 2380.04ZM462.258 50.9786C462.458 50.6586 462.659 50.3286 462.848 49.9986C461.319 50.4486 459.789 50.8786 458.258 51.3386C459.608 51.1886 460.938 51.0686 462.258 50.9786ZM644.239 60.5586C644.188 60.4086 644.138 60.2586 644.098 60.1186C644.218 60.1886 644.338 60.2686 644.468 60.3486C644.369 60.4086 644.308 60.4786 644.239 60.5586ZM540.168 960.359C409.468 897.869 391.388 737.649 287.899 649.379C284.558 646.199 281.789 642.929 280.178 639.079C287.598 564.109 287.058 498.379 295.829 423.489C305.628 405.709 309.499 385.059 316.798 366.139C320.619 354.619 325.258 343.209 326.358 331.119C327.278 327.139 321.058 325.409 319.899 329.169C306.088 356.009 299.218 385.859 288.909 414.159C287.458 414.739 285.528 414.279 284.958 412.759C284.869 413.129 284.768 413.499 284.678 413.869C240.308 396.529 194.558 380.379 146.218 380.499C146.249 380.349 146.289 380.189 146.319 380.039C143.338 380.129 137.088 379.889 138.958 375.569C181.448 220.619 257.739 114.409 419.569 63.9586C398.878 184.189 700.018 191.149 695.858 79.2386C809.298 127.979 858.168 264.869 845.308 380.129C834.528 377.219 806.458 388.669 795.508 395.319C794.456 373.233 795.134 348.993 795.801 325.148C796.548 298.467 797.28 272.288 795.558 250.189C794.202 266.962 792.752 283.994 791.286 301.235C774.091 503.328 754.456 734.108 852.539 912.499C854.345 915.891 856.448 919.245 858.566 922.621C864.55 932.163 870.645 941.882 870.438 953.139C871.268 953.979 871.348 955.449 870.338 956.529C870.338 956.599 870.338 956.669 870.329 956.739C870.278 956.749 870.218 956.749 870.159 956.749C867.069 960.429 860.569 961.159 856.098 961.969C845.539 964.099 834.428 965.719 824.758 970.619C761.126 1004.03 705.968 990.201 649.354 976.012C614.303 967.226 578.693 958.301 540.168 960.359ZM595.979 1080.62C586.069 1075.84 577.708 1068.19 572.729 1058.68C570.418 1054.26 577.319 1050.36 579.688 1054.79C584.468 1063.71 594.388 1073.03 605.508 1075.07C598.844 1059.59 597.184 1047.02 595.759 1036.23C592.863 1014.31 590.94 999.751 549.948 983.089C399.888 929.139 386.598 742.569 272.249 651.779C259.808 655.679 257.608 638.769 259.558 629.989C266.018 558.969 266.979 495.529 281.979 425.539C239.448 404.739 191.958 393.409 144.729 387.769C115.468 546.339 91.1593 690.289 218.558 817.239C282.128 886.339 352.088 949.799 417.758 1017.04C431.168 1028.98 440.329 1044.53 449.079 1059.97C455.879 1071.96 472.493 1090.07 483.265 1101.81C489.126 1108.2 493.258 1112.7 493.138 1113.31C518.048 1132.33 523.808 1133.92 547.018 1112.3C553.838 1107.52 561.428 1106.59 569.319 1104.41C581.378 1100.37 576.358 1091.9 594.208 1088.25C594.338 1085.72 594.758 1083.02 595.979 1080.62ZM840.088 836.269C842.188 775.819 841.808 715.329 840.999 654.859C840.93 650.424 840.86 646.014 840.791 641.625C839.453 557.026 838.239 480.351 844.428 395.019C828.218 397.259 811.319 399.549 795.588 404.789C797.52 441.737 797.895 478.99 798.27 516.276C799.363 624.922 800.459 733.841 840.088 836.269ZM227.088 1003.6C225.256 991.006 225.732 978.454 226.209 965.874C226.406 960.682 226.603 955.485 226.638 950.279C225.249 917.829 226.329 886.199 227.579 853.639C263.438 890.789 300.718 926.679 337.338 963.139C298.338 968.059 253.358 972.109 227.088 1003.6ZM228.188 1028.97C227.638 1029.3 227.039 1029.57 226.428 1029.77C227.018 1043.46 227.798 1057.15 228.778 1070.83C228.268 1056.89 228.048 1042.93 228.188 1028.97ZM182.558 2022.07C172.039 2021.26 127.048 2019.71 121.649 2026.77C125.925 2028.58 131.328 2028.41 136.432 2028.25L136.44 2028.25C138.595 2028.19 140.691 2028.12 142.628 2028.21C155.329 2028.73 167.999 2029.85 180.569 2031.63C179.628 2036.53 178.778 2041.42 178.079 2046.33C165.399 2047.54 140.708 2048.09 132.659 2056.96C147.018 2059.25 161.968 2057.19 176.378 2060.05C175.678 2066.77 175.168 2073.5 174.789 2080.23C169.048 2080.84 135.289 2086.43 135.319 2091.74C142.004 2092.63 148.9 2092.43 155.819 2092.23C161.981 2092.05 168.161 2091.87 174.229 2092.46C173.76 2099.24 173.637 2108.31 173.496 2118.76C172.794 2170.49 171.637 2255.83 125.778 2262.03C77.5883 2259.49 56.4483 2181.39 49.8993 2143.92C35.3783 2056.62 37.8693 1963.54 66.6493 1879.39C76.9283 1855.99 104.909 1851.93 128.569 1850.72C129.468 1854.68 130.358 1858.57 131.358 1862.49C121.098 1885.75 117.829 1911.94 117.548 1937.11C119.718 1973.29 164.358 2000.19 196.778 1976.29C190.718 1991.09 186.039 2006.49 182.558 2022.07ZM14.2393 2070C7.67833 2151.28 23.3383 2261.82 118.789 2282.34C130.428 2284.02 149.608 2280.61 153.338 2268.79C3.74933 2342.01 -2.11167 1922.51 65.3883 1860.89C23.058 1887.83 19.2584 1971.29 16.4909 2032.08C15.8438 2046.3 15.2531 2059.28 14.2393 2070ZM137.489 1887.94C137.659 1886.48 137.848 1885.03 138.048 1883.57C148.638 1912.34 166.778 1939.68 193.789 1956.34C183.448 1969.24 163.308 1973.08 149.718 1962.52C130.48 1948.09 133.369 1924.19 135.989 1902.52C136.597 1897.49 137.19 1892.58 137.489 1887.94ZM779.729 2167.08C752.358 2187.33 725.638 2209.88 706.628 2238.12C694.048 2261.09 677.308 2247.1 673.149 2228.7C669.778 2187.62 672.678 2152.14 668.729 2110.81C706.579 2115.97 745.458 2112.79 782.428 2103.66C777.979 2122.11 775.938 2129.11 775.798 2148.04C776.039 2154.28 775.948 2161.89 779.729 2167.08ZM663.829 2113.54C663.989 2112.41 664.138 2111.29 664.308 2110.17C663.938 2110.11 663.569 2110.04 663.198 2109.98C663.489 2111.15 663.628 2112.35 663.829 2113.54ZM643.358 2259.2C645.058 2242.24 647.778 2224.34 657.428 2209.36C656.378 2233.58 670.928 2274.76 702.808 2261.05C711.838 2256.26 716.899 2246.62 722.708 2238.88C742.018 2213.42 766.778 2191.32 794.749 2175.25C810.308 2177.93 816.999 2206.38 827.028 2218.29C815.848 2223.27 795.588 2234.62 793.539 2246.37C807.499 2241.67 820.348 2232.93 834.989 2229.85C839.678 2236.32 844.649 2242.6 849.869 2248.67C843.048 2251.67 815.548 2265.57 815.729 2272.51C830.598 2270.09 845.008 2262.81 859.958 2259.82C866.608 2266.42 872.659 2273.51 879.278 2280.13C869.278 2284.25 858.718 2288.85 853.258 2298.45C852.999 2298.88 853.638 2299.37 853.989 2298.95C861.479 2289.92 874.369 2288.26 885.539 2286.23C902.678 2302.37 921.869 2316.6 943.348 2327.26C964.838 2339.01 997.499 2341.69 1006.05 2367.19C1012.89 2392.67 991.558 2395.39 971.878 2397.19C951.968 2400.02 931.918 2400.45 912.138 2398.8C850.308 2396.22 791.858 2378.02 733.428 2362.11C661.989 2348.97 638.808 2338.32 643.358 2259.2ZM666.528 2374.55C759.058 2405.42 930.058 2458.78 1024.23 2416.49C1025.35 2414.07 1025.29 2411.19 1025.1 2408.53C1024.7 2405.95 1024.69 2403.14 1024.69 2400.32C1024.68 2395.83 1024.67 2391.29 1023.09 2387.57C1018.92 2401.89 1004.74 2409.65 990.409 2411.9C914.92 2426.4 842.157 2406.72 770.835 2387.42C749.916 2381.76 729.121 2376.14 708.418 2371.42C681.468 2366.36 653.338 2360.26 640.258 2335.02C633.53 2362.7 640.978 2365.38 663.792 2373.56C664.68 2373.88 665.593 2374.21 666.528 2374.55Z" transform="translate(193.0002 -10.00104)" fill="#16181D" fill-rule="evenodd" stroke="none"></path></g><g transform="translate(225 0)"><g><g><path d="M445.871 244.554C436.72 194.655 414.156 147.176 379.503 110.027C375.504 105.616 371.911 98.6579 365.809 97.5459C359.684 85.0649 348.009 76.2419 338.676 66.1629C318.305 45.8519 298.815 23.1549 272.54 10.3289C150.671 -39.7931 33.3942 103.123 8.50723 210.604C-16.2118 297.041 10.7862 416.279 117.908 419.777C133.063 439.821 153.975 453.695 175.456 466.086C204.791 484.868 236.791 492.492 270.729 482.04C304.528 490.872 339.565 462.53 359.877 437.674C375.932 418.421 386.936 394.924 401.621 374.995C418.958 374.562 433.94 359.882 436.261 342.675C452.454 312.918 451.718 277.26 445.871 244.554L445.871 244.554Z" transform="translate(17.99997 10.99906)" fill="var(--peau, #B9814F)" stroke="none"></path><path d="M185.415 3.3453C207.59 -1.8357 230.845 -0.761702 252.81 4.9323C296.345 16.2193 332.166 45.5703 361.867 78.2953C390.838 110.215 414.729 146.807 432.178 186.226L433.062 188.232C445.404 216.331 456.13 245.538 456.59 276.478C456.986 303.107 454.296 330.849 445.693 356.177C438.029 378.74 423.932 401.476 399.679 406.885C385.694 442.433 358.334 473.217 323.869 489.689C302.493 499.906 279.018 504.467 255.384 502.199C231.271 499.887 208.748 488.301 189.903 473.526C189.386 473.121 190.051 472.336 190.584 472.642C213.273 485.717 240.107 490.391 266.095 489.531C308.803 488.119 347.956 465.068 370.454 428.835C376.052 419.817 381.04 410.305 385.019 400.41C384.786 399.596 384.651 398.771 384.651 397.967C384.651 394.558 386.269 391.953 388.683 390.27C389.802 386.773 390.792 383.236 391.619 379.659C393.494 371.557 394.54 363.338 395.171 355.053C395.683 348.322 395.399 341.181 396.075 334.278C395.829 328.747 395.487 323.221 394.986 317.707C393.373 299.939 390.111 282.215 383.828 265.469C377.463 248.507 367.411 233.549 354.729 220.674C327.527 193.061 293.659 172.898 267.208 144.531L265.823 143.03L265.729 143C262.447 146.365 259.167 149.73 255.878 153.088L240.851 168.415C210.182 199.731 179.761 231.352 153.08 266.199C137.717 286.266 123.914 307.301 112.021 329.607C106.389 340.172 101.282 351 96.6664 362.046L94.85 366.443C92.6887 371.705 90.3532 377.596 89.0558 383.538C92.9158 387.367 95.7388 392.994 98.8608 397.34C102.402 402.269 106.486 406.961 110.688 411.34C114.941 415.773 119.606 420.022 124.558 423.663L125.152 424.093C130.834 428.125 137.357 430.91 138.209 438.585C138.579 441.918 135.599 444.599 132.84 445.637C125.829 448.27 118.586 441.439 113.556 436.695C113.166 436.328 112.79 435.973 112.429 435.636C109.29 432.712 106.404 429.561 103.728 426.234C101.123 426.607 98.5008 426.794 95.9058 426.486C91.8848 426.008 87.9028 425.305 83.9858 424.275C51.4978 415.745 27.4508 388.775 14.4768 358.738C-2.94123 318.412 -2.53623 271.927 4.70477 229.283C17.9358 151.353 60.7578 78.5753 125.419 32.5003C143.528 19.5963 163.609 8.4393 185.415 3.3453ZM110.007 59.9223C140.562 33.1093 178.646 11.5693 220.418 13.7703C262.63 15.9943 302.001 38.5513 332.36 66.8683C362.338 94.8293 387.358 128.149 406.804 164.189C416.379 181.933 424.591 200.384 431.29 219.403C434.639 228.91 437.63 238.547 440.23 248.287C441.325 252.389 442.031 256.387 442.375 259.576C444.839 282.42 442.61 306.345 437.208 328.62C434.253 340.804 430.432 352.588 424.451 363.428C421.729 368.36 418.855 372.641 415.832 376.01C414.196 377.833 412.441 379.519 410.601 381.134C410.579 381.153 410.552 381.176 410.521 381.202L409.702 381.875C409.411 382.09 409.123 382.309 408.826 382.508C408.103 382.99 407.374 383.459 406.636 383.915C406.742 383.411 406.836 382.904 406.937 382.4C411.738 378.57 411 368.693 410.481 361.749C410.359 360.119 410.249 358.65 410.226 357.459L410.204 356.445L410.496 352.988C411.314 342.973 411.836 332.146 408.587 323.04C407.715 312.769 406.416 302.541 404.447 292.42C400.456 271.905 393.344 251.658 381.566 234.267C368.948 215.638 351.676 200.96 333.979 187.344L330.783 184.88C312.669 170.891 294.505 156.547 274.765 144.973C284.65 146.373 295.328 145.747 304.567 144.379C311.589 143.34 318.536 141.785 325.325 139.713L326.191 139.452C332.329 137.619 339.877 135.676 344.075 130.74C347.121 127.158 345.404 120.351 339.906 120.675C333.411 121.057 327.832 124.957 321.929 127.391C315.646 129.983 309.136 132.068 302.541 133.701C296.283 135.252 289.993 136.678 283.617 137.646C278.922 138.359 274.143 138.674 269.42 139.221C274.958 133.529 280.479 127.822 285.957 122.076C290.72 117.08 295.455 112.057 300.146 106.993L300.641 106.462C305.454 101.329 310.892 96.3246 314.054 90.0123C316.11 85.9083 311.719 80.3903 307.32 83.2773C301.802 86.9003 297.814 92.0233 293.382 96.8603C288.9 101.752 284.377 106.605 279.826 111.433C270.682 121.131 261.421 130.719 252.135 140.279C233.541 159.424 214.878 178.504 196.814 198.153C161.444 236.628 127.37 277.859 104.461 325.187C98.1758 338.174 92.6688 351.562 88.3238 365.321C84.1798 378.439 81.4588 392.673 90.1528 404.602C90.3618 404.889 90.7158 404.851 90.9038 404.663C93.0358 409.887 95.5808 414.873 98.7848 419.564C99.3868 420.447 100.006 421.317 100.633 422.181C86.8588 418.551 73.9748 413.216 62.6718 403.959C50.6768 394.137 40.5148 382.488 32.6248 369.119C12.2888 334.662 9.54777 292.625 13.2108 253.625C20.1048 180.222 54.3728 108.742 110.007 59.9223ZM139.196 112.157C140.776 110.169 138.662 106.419 136.185 108.254C112.151 126.069 91.8748 150.198 74.2358 174.201L73.5725 175.106C56.1336 198.975 40.8178 225.393 34.2668 254.48C34.1568 254.97 34.8908 255.348 35.1238 254.841C47.4918 227.95 62.0948 202.292 80.3378 178.909C89.2848 167.442 98.7668 156.409 108.687 145.774C119.017 134.7 129.757 124.031 139.196 112.157ZM161.509 128.92C163.015 128 164.565 129.787 163.818 131.229C160.201 138.208 154.119 144.1 149.067 150.08C143.836 156.272 138.643 162.498 133.463 168.733C122.915 181.428 112.62 194.356 102.731 207.572L100.121 211.068C91.4269 222.739 82.8385 234.594 75.2385 246.994C71.2625 253.481 67.7585 260.19 64.5765 267.099C61.5475 273.676 60.1505 281.615 56.5105 287.793C56.2815 288.183 55.5715 288.151 55.4835 287.658C54.3667 281.405 56.8932 273.951 58.9421 267.905C59.0728 267.519 59.2017 267.139 59.3275 266.765C61.8205 259.357 65.3685 252.301 69.1665 245.486C77.0885 231.27 86.5805 217.945 96.1165 204.781C105.801 191.414 115.856 178.32 126.405 165.622C131.36 159.658 136.426 153.813 141.644 148.082L143.607 145.939C149.072 140.011 154.58 133.15 161.509 128.92Z" transform="translate(13.00033 1.000502)" fill="#16181D" fill-rule="evenodd" stroke="none"></path></g></g><g transform="translate(159 186)"><g><path d="M140.63 0.473197L139.193 0.179116C137.503 -0.15929 135.804 -0.0161244 134.311 0.591153C132.847 1.18684 131.572 2.2242 130.68 3.72083C129.495 5.71373 129.337 7.38618 129.887 9.59525C130.311 11.3022 131.242 12.5864 132.46 13.5139C133.744 14.4911 135.37 15.0612 137.06 15.2595C144.854 16.175 152.53 17.8896 159.992 20.3235C163.488 21.4643 166.788 23.0096 170.058 24.6132L172.877 26.002C175.477 27.2735 178.163 28.499 181.557 29.3885C181.824 29.4584 182.087 29.5243 182.349 29.5865C183.29 29.2909 183.45 28.9329 183.649 28.6733L183.73 28.5721C183.972 28.2679 184.271 27.8025 183.988 25.6306C176.583 10.2711 156.267 3.74181 140.63 0.473197ZM43.5878 4.83023L45.4652 4.50163C51.273 3.49719 58.4944 2.53203 62.6028 7.20123C64.7819 9.67723 65.5318 14.2792 62.6028 16.6492C58.7671 19.7539 54.6298 19.6513 50.2182 19.5419C48.7043 19.5044 47.1582 19.466 45.5808 19.5562C40.4928 19.8482 35.6028 20.6902 30.7018 22.0912C19.9498 25.1642 11.1888 30.7742 2.00585 36.9342C0.800849 37.7422 -0.429151 36.2012 0.145849 35.0742C5.44685 24.6912 15.7198 16.1622 26.0098 10.9632C31.5019 8.18823 37.5118 5.88623 43.5878 4.83023ZM29.9632 50.1461C30.7976 39.7899 46.5702 37.4381 48.1392 47.6861C49.5442 56.8661 47.8902 65.2991 43.7552 73.5641C39.8042 81.4601 29.8737 77.7763 29.1227 70.5863C28.3809 63.4843 28.9069 59.2482 29.4428 54.933C29.6341 53.3921 29.8267 51.8412 29.9632 50.1461ZM159.205 41.8262C155.401 40.7152 152.226 42.6812 150.027 45.5612C149.773 45.8932 149.566 46.2222 149.38 46.5482C142.515 52.8562 145.101 65.6452 150.501 72.0492C153.814 75.9762 161.145 74.8452 163.413 70.3852C167.587 62.1722 171.09 45.2992 159.205 41.8262ZM128.748 119.039C136.872 107.66 125.366 96.9569 117.814 92.3669C115.836 90.9469 117.406 86.2431 121.634 86.9701C160.031 93.5671 140.136 159.708 91.112 123.413C85.2754 118.704 92.3434 108.334 98.6342 112.366C98.9532 112.611 99.2876 112.869 99.6364 113.139C106.704 118.603 119.636 128.601 128.748 119.039ZM93.5865 188.926C86.8642 186.184 80.8663 181.61 76.4812 175.766C74.9566 173.735 74.5614 171.589 74.8812 169.627C75.2408 167.421 76.546 165.422 78.326 164.08C80.1115 162.735 82.345 162.072 84.5043 162.41C86.3806 162.704 88.2484 163.731 89.7265 165.862L90.0354 166.288C92.6424 169.815 96.0396 172.708 99.9104 174.574C103.641 176.372 107.814 177.211 112.132 176.723C120.356 175.794 126.024 171.346 132.049 165.306C132.796 164.544 133.543 163.757 134.294 162.958C134.768 162.234 135.426 161.768 136.157 161.524C136.968 161.253 137.886 161.268 138.726 161.562C139.537 161.845 140.262 162.381 140.747 163.094C141.209 163.772 141.471 164.61 141.386 165.574C140.835 171.833 137.562 177.419 132.914 181.805C127.752 186.677 120.909 190.047 114.466 191.229C107.368 192.531 100.136 191.598 93.5865 188.926Z" transform="translate(53.00005 52.00027)" fill="#16181D" fill-rule="evenodd" stroke="none"></path></g></g><g transform="translate(123 338)"></g><g transform="translate(47 241)"></g></g></g></svg>
